<svg version="1.1" xmlns="http://www.w3.org/2000/svg" xmlns:xlink="http://www.w3.org/1999/xlink" width="214.55132" height="88.06296" viewBox="0,0,214.55132,88.06296"><defs><linearGradient x1="240.00002" y1="135.9685" x2="240.00002" y2="224.03152" gradientUnits="userSpaceOnUse" id="color-1"><stop offset="0" stop-color="#1a1a1a" stop-opacity="0"/><stop offset="1" stop-color="#1a1a1a"/></linearGradient></defs><g transform="translate(-132.72434,-135.96852)"><g data-paper-data="{&quot;isPaintingLayer&quot;:true}" stroke="none" stroke-linecap="butt" stroke-linejoin="miter" stroke-miterlimit="10" stroke-dasharray="" stroke-dashoffset="0" style="mix-blend-mode: normal"><path d="M132.72434,208.64939c0,-10.90914 0,-43.3479 0,-60.77142c0,-6.84067 5.53967,-11.90945 11.53103,-11.90945c21.53517,0 149.83108,0.3819 190.59546,0.50492c7.82512,0.02362 12.42483,6.53912 12.42483,15.74534c0,18.19635 0,46.95942 0,56.9732c0,6.81404 -5.55428,14.8395 -11.97738,14.8395c-22.5703,0 -154.46372,0 -192.38199,0c-6.4596,0 -10.19193,-8.3668 -10.19193,-15.38209z" fill="url(#color-1)" fill-rule="nonzero" stroke-width="0"/><text transform="translate(213.19147,193.27973) scale(0.7536,0.7536)" font-size="40" xml:space="preserve" fill="#ffffff" fill-rule="nonzero" stroke="none" stroke-width="1" stroke-linecap="butt" stroke-linejoin="miter" stroke-miterlimit="10" stroke-dasharray="" stroke-dashoffset="0" font-family="&quot;Ethnocentric Bold&quot;, Pixel" font-weight="normal" text-anchor="start" style="mix-blend-mode: normal"><tspan x="0" dy="0">Login</tspan></text><path d="M207.12662,181.76982c0,14.47586 -9.31057,26.72871 -22.2268,31.06695c-1.6142,0.32537 -2.20638,-0.7053 -2.20638,-1.57294c0,-1.08389 0.05323,-4.60838 0.05323,-8.99984c0,-3.09066 -1.02201,-5.0422 -2.20638,-6.0722c7.26588,-0.81375 14.8538,-3.57838 14.8538,-16.15726c0,-3.57838 -1.23759,-6.50602 -3.33685,-8.78293c0.32271,-0.81309 1.45384,-4.17522 -0.32271,-8.67514c0,0 -2.74467,-0.86765 -8.93397,3.36147c-2.58364,-0.70463 -5.38154,-1.08456 -8.12621,-1.08456c-2.74483,0.00307 -5.47729,0.36773 -8.12687,1.08456c-6.18864,-4.22911 -8.9333,-3.36147 -8.9333,-3.36147c-1.77655,4.49992 -0.64608,7.86205 -0.32337,8.67514c-2.04536,2.27691 -3.33618,5.20455 -3.33618,8.78293c0,12.57888 7.58792,15.39807 14.7999,16.15726c-0.91489,0.81309 -1.77655,2.27691 -2.04536,4.39146c-1.88367,0.86765 -6.5659,2.27691 -9.47159,-2.71073c0,0 -1.72265,-3.14455 -5.0056,-3.36147c0,0 -3.17516,0 -0.21558,2.0061c0,0 2.15315,0.97544 3.60632,4.77073c0,0 1.88301,5.85595 10.92543,3.90375c0,2.7114 0.05323,5.31367 0.05323,6.07286c0,0.86698 -0.59152,1.89764 -2.20638,1.57161c-12.91623,-4.3369 -22.2268,-16.59042 -22.2268,-31.06628c0,-18.10947 14.53109,-32.74768 32.50615,-32.74768c17.92117,0 32.50549,14.63821 32.45226,32.74768z" fill="#ffffff" fill-rule="evenodd" stroke-width="1"/></g></g></svg>