<svg version="1.1" xmlns="http://www.w3.org/2000/svg" xmlns:xlink="http://www.w3.org/1999/xlink" width="214.55132" height="88.06296" viewBox="0,0,214.55132,88.06296"><defs><linearGradient x1="240.00002" y1="135.9685" x2="240.00002" y2="224.03152" gradientUnits="userSpaceOnUse" id="color-1"><stop offset="0" stop-color="#1a1a1a" stop-opacity="0"/><stop offset="1" stop-color="#1a1a1a"/></linearGradient></defs><g transform="translate(-132.72434,-135.96852)"><g data-paper-data="{&quot;isPaintingLayer&quot;:true}" fill-rule="nonzero" stroke="none" stroke-linecap="butt" stroke-linejoin="miter" stroke-miterlimit="10" stroke-dasharray="" stroke-dashoffset="0" style="mix-blend-mode: normal"><path d="M132.72434,208.64939c0,-10.90914 0,-43.3479 0,-60.77142c0,-6.84067 5.53967,-11.90945 11.53103,-11.90945c21.53517,0 149.83108,0.3819 190.59546,0.50492c7.82512,0.02362 12.42483,6.53912 12.42483,15.74534c0,18.19635 0,46.95942 0,56.9732c0,6.81404 -5.55428,14.8395 -11.97738,14.8395c-22.5703,0 -154.46372,0 -192.38199,0c-6.4596,0 -10.19193,-8.3668 -10.19193,-15.38209z" fill="url(#color-1)" stroke-width="0"/><text transform="translate(147.58127,191.25) scale(0.9375,0.9375)" font-size="40" xml:space="preserve" fill="#a9e43a" fill-rule="nonzero" stroke="none" stroke-width="1" stroke-linecap="butt" stroke-linejoin="miter" stroke-miterlimit="10" stroke-dasharray="" stroke-dashoffset="0" font-family="&quot;Ethnocentric Bold&quot;, Pixel" font-weight="normal" text-anchor="start" style="mix-blend-mode: normal"><tspan x="0" dy="0">Start</tspan></text><text transform="translate(206.49999,207.36562) scale(0.5,0.5)" font-size="40" xml:space="preserve" fill="#a9e43a" fill-rule="nonzero" stroke="none" stroke-width="1" stroke-linecap="butt" stroke-linejoin="miter" stroke-miterlimit="10" stroke-dasharray="" stroke-dashoffset="0" font-family="&quot;Ethnocentric Bold&quot;, Pixel" font-weight="normal" text-anchor="start" style="mix-blend-mode: normal"><tspan x="0" dy="0">App</tspan></text></g></g></svg>